<svg xmlns="http://www.w3.org/2000/svg" xmlns:xlink="http://www.w3.org/1999/xlink" version="1.1" x="0px" y="0px"
    viewBox="0 0 100 125" enable-background="new 0 0 100 100" xml:space="preserve">
    <g>
        <path fill="white"
            d="M91.427,39.208c0-19.313-18.545-34.969-41.425-34.969S8.573,19.896,8.573,39.208   c0,8.356,4.096,14.401,4.096,14.401c2.501,3.692,3.859,8.461,3.35,11.347c-0.108,0.61-0.317,1.576-0.317,2.197   c0,0.42,0,0.997,0,1.789c0,6.829,4.387,12.361,9.799,12.361c1.694,0,1.694,0,1.694,0c1.641-0.821,2.983,2.241,2.983,6.808   c0,2.285,1.039,3.8,2.712,4.743l0.698-1.99c0.282-0.806,1.171-1.436,2.024-1.436h1.447c0.682,0,1.268,0.41,1.533,0.994   c0.328-0.588,0.965-0.994,1.651-0.994h2.212c0.588,0,1.105,0.304,1.407,0.762c0.333-0.456,0.871-0.762,1.452-0.762h4.209   c0.433,0,0.824,0.169,1.123,0.438c0.299-0.27,0.689-0.438,1.123-0.438h3.898c0.687,0,1.315,0.405,1.636,0.991   c0.266-0.584,0.852-0.991,1.533-0.991h1.801c0.683,0,1.313,0.4,1.643,0.98c0.268-0.577,0.85-0.98,1.524-0.98h0.588   c0.852,0,1.742,0.63,2.024,1.435l0.695,1.99c1.674-0.943,2.711-2.458,2.711-4.742c0-4.563,1.345-7.629,2.983-6.808c0,0,0,0,1.693,0   c5.413,0,9.8-5.532,9.8-12.361c0-0.792,0-1.369,0-1.789c0-0.621-0.208-1.588-0.315-2.199c-0.507-2.885,0.847-7.653,3.35-11.345   C87.332,53.609,91.427,47.564,91.427,39.208z M32.922,69.944c-6.028,0-12.758-1.336-12.758-9.809c0-5.418,1.114-7.966,9.069-7.966   c6.028,0,14.603,2.548,14.603,7.966C43.836,65.555,40.21,69.944,32.922,69.944z M53.533,80.454c-1.943-1.479-5.124-1.479-7.067,0   s-2.221-1.247-0.617-6.057l1.234-3.699c1.604-4.813,4.23-4.813,5.833,0l1.233,3.699C55.756,79.207,55.477,81.934,53.533,80.454z    M66.49,69.944c-7.287,0-10.912-4.39-10.912-9.809c0-5.418,8.576-7.966,14.602-7.966c7.957,0,9.069,2.548,9.069,7.966   C79.249,68.608,72.52,69.944,66.49,69.944z" />
    </g>
    <g>
        <path fill="white"
            d="M42.453,90.552h-2.212c-0.345,0-0.696,0.298-0.752,0.638l-0.571,3.465   c-0.021,0.129,0.005,0.245,0.075,0.328c0.07,0.082,0.18,0.127,0.311,0.127h3.15c0.31,0,0.562-0.252,0.562-0.562v-3.435   C43.015,90.804,42.763,90.552,42.453,90.552z" />
        <path fill="white"
            d="M37.058,90.552h-1.447c-0.379,0-0.839,0.325-0.964,0.683l-1.103,3.146   c-0.036,0.103-0.037,0.191-0.004,0.238s0.118,0.074,0.226,0.074h3.292c0.31,0,0.561-0.252,0.561-0.562v-3.018   C37.619,90.804,37.367,90.552,37.058,90.552z" />
        <path fill="white"
            d="M63.803,94.692h2.433c0.107,0,0.193-0.027,0.227-0.074c0.032-0.047,0.03-0.135-0.005-0.237l-1.101-3.146   c-0.128-0.357-0.586-0.683-0.966-0.683h-0.588c-0.309,0-0.562,0.252-0.562,0.562v3.018C63.241,94.44,63.494,94.692,63.803,94.692z" />
        <path fill="white"
            d="M51.768,95.761h4.821c0.134,0,0.248-0.047,0.32-0.133c0.074-0.084,0.104-0.204,0.083-0.334l-0.597-4.112   c-0.05-0.335-0.39-0.63-0.729-0.63h-3.898c-0.309,0-0.562,0.252-0.562,0.562v4.086C51.206,95.509,51.459,95.761,51.768,95.761z" />
        <path fill="white"
            d="M49.521,90.552h-4.209c-0.327,0-0.641,0.285-0.672,0.609l-0.397,4.098c-0.013,0.138,0.026,0.264,0.11,0.357   c0.084,0.093,0.208,0.145,0.346,0.145h4.822c0.31,0,0.562-0.252,0.562-0.562v-4.086C50.083,90.804,49.831,90.552,49.521,90.552z" />
        <path fill="white"
            d="M58.835,95.109h2.722c0.132,0,0.244-0.045,0.314-0.128c0.069-0.083,0.096-0.2,0.076-0.329l-0.563-3.464   c-0.055-0.34-0.403-0.637-0.748-0.637h-1.801c-0.31,0-0.562,0.252-0.562,0.562v3.435C58.273,94.857,58.525,95.109,58.835,95.109z" />
    </g>
</svg>